PathFileType	4	(X/Y/Z)	c:/Users/goper/Files/vsCode/490R/osim_files/A06/A06_Fast_04.trc
DataRate	CameraRate	NumFrames	NumMarkers	Units                	OrigDataRate	OrigDataStartFrame	OrigNumFrames
120.00	120.00	9	36	mm	120.0	241	960
                Frame#	Time	LPSIS			LASIS			LTH1			LTH2			LTH3			LTH4			LLFE			LMFE			LSH1			LSH2			LSH3			LSH4			LLMAL			LMMAL			LCAL			LMTP5			LTOE			LMTP1			RPSIS			RASIS			RTH1			RTH2			RTH3			RTH4			RLFE			RMFE			RSH1			RSH2			RSH3			RSH4			RLMAL			RMMAL			RCAL			RMTP1			RTOE			RMTP5		
		X1	Y1	Z1	X2	Y2	Z2	X3	Y3	Z3	X4	Y4	Z4	X5	Y5	Z5	X6	Y6	Z6	X7	Y7	Z7	X8	Y8	Z8	X9	Y9	Z9	X10	Y10	Z10	X11	Y11	Z11	X12	Y12	Z12	X13	Y13	Z13	X14	Y14	Z14	X15	Y15	Z15	X16	Y16	Z16	X17	Y17	Z17	X18	Y18	Z18	X19	Y19	Z19	X20	Y20	Z20	X21	Y21	Z21	X22	Y22	Z22	X23	Y23	Z23	X24	Y24	Z24	X25	Y25	Z25	X26	Y26	Z26	X27	Y27	Z27	X28	Y28	Z28	X29	Y29	Z29	X30	Y30	Z30	X31	Y31	Z31	X32	Y32	Z32	X33	Y33	Z33	X34	Y34	Z34	X35	Y35	Z35	X36	Y36	Z36

241	2.00000	728.35126	971.82611	375.15298	541.67578	908.49634	451.29214	509.47137	573.69159	482.32404	486.47665	538.61969	476.21948	451.91724	599.86707	468.13614	439.53702	559.40778	464.29572	435.21719	480.95255	458.76453	440.91388	476.30884	355.93329	478.12170	378.24814	480.20172	465.29465	334.11606	485.24271	418.66263	388.04956	465.41553	414.20157	345.73029	469.34360	440.85178	87.66206	444.40582	425.19998	98.52544	359.21542	505.12628	75.97263	394.50467	321.57639	46.20117	458.27853	284.87170	72.87795	402.62674	309.56949	61.80048	363.42105	725.10913	984.20807	243.41580	547.08051	944.35278	196.96114	744.16742	568.54553	158.41945	751.81500	526.09210	158.71857	684.40857	550.12390	165.64839	700.95215	508.72275	163.22417	764.96161	411.50677	184.71033	761.55920	410.88870	275.16501	898.56396	328.23999	199.49760	934.52582	297.08948	201.95551	861.62836	279.87399	210.71478	902.81622	254.25162	207.27220	1041.95715	210.64928	193.13719	1027.05884	202.08487	277.56448	1093.19263	239.39223	243.25734	975.56726	71.63466	271.14838	959.03149	68.86941	229.48068	988.89581	78.99505	181.54343
242	2.00833	718.58197	974.72906	376.10498	530.92200	911.78381	451.47687	503.05933	573.81396	482.13947	480.65399	538.27808	476.00797	444.92587	598.99969	468.74228	433.19095	558.42059	464.58188	430.33032	479.99493	458.75104	436.72144	475.72351	355.04312	473.90161	378.48911	480.10132	461.64706	334.23761	485.13086	414.52673	387.44901	465.28537	410.51373	345.26199	469.30869	440.46381	87.80648	444.15280	425.02490	98.42763	358.92023	504.71063	75.84039	394.52542	321.48151	46.09554	458.26395	284.61282	72.34116	402.43604	309.66745	61.76054	362.94751	715.12927	986.64655	244.55563	537.26617	947.71130	197.30804	725.14111	567.35095	158.69479	731.29553	524.65918	159.02002	664.68994	551.28162	166.53577	679.83990	508.83597	163.62976	740.50140	409.74750	184.62549	737.35718	409.21478	275.47083	877.18054	331.81970	199.23535	914.34235	302.07837	201.52432	842.49420	282.57645	210.28410	885.30133	259.64633	206.62859	1024.67627	219.94481	192.17360	1010.33093	210.73221	276.72226	1074.56262	250.55678	242.23076	964.71539	78.17815	270.77811	948.55029	73.79128	229.45062	977.44867	85.62778	180.73314
243	2.01667	707.16718	976.92487	377.29651	520.64612	914.79474	451.32391	496.70166	574.02789	482.13168	474.85382	538.21851	475.71576	438.08362	598.27100	468.79407	427.06796	557.49371	464.54767	425.82565	478.95349	458.81598	433.46365	474.95093	353.90399	470.73987	379.06696	480.27942	458.61758	334.28351	484.89496	410.78247	386.60168	465.03226	407.30499	344.71542	469.18063	440.12427	87.89454	443.85471	424.80435	98.30833	358.56842	504.60101	75.94699	394.42346	321.37497	45.95810	458.21368	284.20258	71.62689	401.93475	309.52289	61.26066	362.78073	705.29791	989.22156	245.87965	527.51440	951.27466	197.37918	705.94098	566.76263	158.93723	710.56726	523.83588	159.34547	643.85071	551.30243	167.90944	658.70081	510.20126	164.13768	715.78790	408.99164	185.50636	713.08716	408.39844	275.90451	855.09503	335.74704	199.00044	893.05054	307.05496	201.17686	822.55963	285.80725	210.22998	865.63611	263.74951	207.09085	1008.71381	228.80524	191.62018	995.78461	219.75481	276.46338	1059.15015	259.76990	241.25545	951.00360	86.10827	270.55981	934.35382	81.80932	229.33058	962.70447	94.11499	180.27972
244	2.02500	696.68414	979.56482	378.65091	509.00247	917.24341	451.34143	490.51535	574.65582	482.01736	469.11288	538.44080	475.67587	431.27832	597.95441	468.49567	421.02615	556.92999	464.21664	421.62628	478.29727	458.72702	431.35632	474.04373	353.10544	467.44147	379.21524	480.14731	455.84766	334.27454	484.68289	407.58572	386.63406	465.31876	404.34567	344.34094	469.16522	439.73663	88.01109	443.49075	424.58960	98.21893	358.21356	504.46835	76.12657	394.26044	321.27710	45.82534	458.15958	284.04834	71.18526	402.03937	309.24243	60.72930	362.68427	695.43134	991.90710	247.28868	517.71832	954.83502	197.30345	686.73151	566.90198	159.17728	689.94073	523.94049	159.62810	625.67883	554.97217	166.80188	637.59454	512.01996	164.71506	691.11133	409.11023	185.83012	689.25580	408.88446	276.40598	832.51508	339.71341	198.80586	871.29578	312.09781	200.77998	801.36633	288.26086	211.10974	844.98773	267.82559	207.12709	989.91418	236.70471	190.58809	977.31934	227.47437	275.62537	1039.88110	269.65619	239.77495	936.17609	92.70147	270.23346	918.99957	88.05184	228.87135	947.29358	100.77535	179.84599
245	2.03333	685.69061	981.80743	380.36072	498.24127	920.58838	451.03146	484.25272	575.69324	482.14053	463.89923	539.09784	475.65714	424.51254	598.14441	467.95126	414.91699	556.86627	463.83542	417.16321	478.03659	458.65762	428.51242	473.25345	352.29913	464.31570	379.41449	480.21744	453.15866	334.38232	484.60861	404.35889	386.33334	465.49747	401.62357	343.98767	469.16888	439.42136	88.24476	443.16251	424.32086	98.19533	357.99091	504.30243	76.34507	394.07053	321.13879	45.73302	458.09103	283.80515	70.73431	401.85471	310.56155	61.35032	361.79993	685.68939	994.80402	248.75377	508.04807	958.48737	197.13794	667.76099	567.69550	159.37881	669.45081	524.55615	159.93741	606.35309	557.81818	167.32944	616.82373	514.47815	165.30225	666.92749	409.93805	186.54485	665.48035	409.97180	276.97269	809.77972	343.67712	198.63690	849.17114	316.91519	200.46237	779.83264	292.26471	210.45450	823.83569	272.07556	207.10886	968.16125	244.46532	189.63455	956.22040	235.14856	274.74539	1016.85425	278.59692	238.57729	919.55524	100.28610	269.35458	901.68542	93.56502	229.30693	929.48602	107.31332	179.39882
246	2.04167	675.31512	984.62097	381.85504	487.29431	923.23889	450.57184	477.89883	576.78284	482.47189	458.44623	539.91901	475.95810	418.16922	598.47192	467.61496	409.19547	557.04401	463.61475	412.76602	478.45496	458.69678	426.39761	473.22269	352.17282	461.56570	379.80362	480.50970	450.88708	334.73962	484.73840	401.44028	386.17114	465.83511	399.08734	343.70462	469.47623	439.07681	88.50925	442.93454	423.99847	98.30351	357.83344	504.18375	76.68767	393.94620	321.03485	45.62583	458.09412	283.49542	70.26894	401.40350	308.46738	59.66160	363.19159	676.05096	997.93628	250.23218	498.56046	962.28729	196.95479	648.82751	569.05109	159.58418	649.05151	525.83185	160.31642	587.20502	561.25903	167.81731	595.88843	517.28638	165.91510	642.70270	411.56970	187.06047	641.97992	411.94196	277.51761	786.96136	347.79166	198.59872	826.53174	321.48410	200.21529	757.72443	295.49237	211.13980	801.94635	276.16681	207.26289	945.60260	251.13913	188.68335	934.22607	241.81326	273.89627	993.61005	286.41043	237.40157	901.13776	105.99783	269.06900	883.21722	98.59940	229.09140	910.62061	113.35348	179.41599
247	2.05000	664.93402	987.39667	383.35440	476.64230	925.13446	450.07266	472.18488	577.90057	483.07016	453.01910	540.61359	476.60846	413.07867	598.14783	467.99734	404.27167	557.02283	463.99948	408.46387	478.89771	459.00491	423.20633	473.04642	352.10822	459.04889	380.22433	480.96201	448.81537	334.89801	485.20282	398.68536	385.51526	466.17911	396.90347	343.58606	470.10809	438.25269	87.96895	442.09949	423.62674	98.45716	357.80618	504.33319	77.25216	393.84552	320.92636	45.47154	458.17484	283.24969	69.86095	401.37158	308.42227	59.11586	363.17883	666.41272	1001.14691	251.67159	488.97571	965.94147	197.00990	630.03235	570.85168	159.76114	628.82605	527.65710	160.56252	568.17871	565.15808	168.29660	575.50372	520.83453	166.55066	618.82831	413.81799	187.90450	618.52826	414.38361	278.11963	763.63611	351.53326	198.52159	803.67438	325.85135	199.98805	735.11548	299.03772	210.99986	779.53571	280.20914	207.40027	923.38617	256.98849	187.88496	912.39185	247.06093	272.86288	971.39331	293.09256	236.10860	881.25397	111.27972	268.64182	862.89752	103.80048	229.09850	889.73596	118.71336	179.14803
248	2.05833	654.75397	990.26556	384.84979	465.70999	927.18372	449.69690	466.97586	578.90350	483.87119	447.20883	541.02106	477.07089	407.52737	598.33771	468.70514	399.37805	556.97278	464.79312	404.65637	479.08780	459.70605	419.12552	473.48108	351.89584	456.70697	380.50772	481.53702	446.90866	335.20230	485.62943	396.28851	385.37177	467.28174	394.93076	343.38745	471.03409	437.94272	88.13872	442.12363	423.25925	98.72429	357.85956	503.83197	77.42202	393.90421	320.75967	45.32150	458.29138	283.00552	69.45419	401.48914	308.03879	58.68550	363.41916	656.64661	1004.34540	253.21658	479.55661	969.52814	197.24745	611.39252	572.99762	159.86096	608.75299	529.86591	160.88557	549.30225	569.28461	168.77687	555.33057	524.76996	167.04039	595.11292	416.56372	188.59209	595.21240	417.30109	278.80283	740.36224	355.24628	198.51854	780.58606	329.79395	199.76677	712.32159	302.66522	211.48949	756.71899	283.89447	207.50435	900.52319	261.70438	187.05307	890.53992	252.28731	272.58148	948.70947	298.11426	234.96793	859.89703	115.83780	268.44382	841.35138	108.04860	229.13049	867.61273	123.02245	178.72736
249	2.06667	644.50214	992.97174	386.23334	455.46042	929.86572	449.47205	462.27246	579.91852	484.68234	443.38116	541.55054	478.01608	402.72598	597.99933	469.96375	395.00345	556.79407	465.99353	401.50293	478.69458	460.84521	415.81088	473.38303	354.07703	454.68597	380.83954	482.17264	445.38138	335.34814	486.32861	394.24969	385.58212	468.67456	393.24820	343.28452	472.05600	437.73776	88.30628	442.22687	422.87668	99.07490	357.94858	503.70004	77.75957	393.94696	320.67917	45.09915	458.48911	282.93887	69.06638	401.99100	308.70551	59.36578	362.74432	646.93402	1007.56854	254.68332	470.22525	973.09717	197.52415	592.91162	575.42200	159.95399	588.90381	532.33478	161.09804	530.79791	573.69458	169.16537	535.50574	528.97925	167.54848	571.78754	419.75500	189.21103	572.47736	420.62888	279.51007	717.16412	358.65463	198.44197	757.38654	333.24466	199.58290	689.19312	306.05457	211.82118	733.29602	287.63797	207.57294	874.55493	262.38266	189.09209	867.84058	255.89236	271.95871	925.75879	301.26675	234.29814	837.54376	119.46062	268.38828	818.66150	112.19020	228.43332	844.64917	126.67937	178.71355
